<?xml version="1.0" standalone="no"?><!DOCTYPE svg PUBLIC "-//W3C//DTD SVG 1.1//EN" "http://www.w3.org/Graphics/SVG/1.1/DTD/svg11.dtd"><svg t="1684740604138" class="icon" viewBox="0 0 1024 1024" version="1.1" xmlns="http://www.w3.org/2000/svg" p-id="17157" width="48" height="48" xmlns:xlink="http://www.w3.org/1999/xlink"><path d="M928 128 96 128C42.976 128 0 170.976 0 224l0 576c0 52.992 42.976 96 96 96l832 0c53.024 0 96-43.008 96-96L1024 224C1024 170.976 981.024 128 928 128zM87.712 831.68 64.32 808.256l263.968-263.936 23.392 23.424L87.712 831.68zM936.288 831.68l-263.968-263.936 23.392-23.424 263.968 263.936L936.288 831.68zM544 618.4 544 640l-64 0 0-21.6L64.096 232.8l40.704-40.704L512 569.632 919.2 192.096l40.704 40.704L544 618.4z" fill="#2c2c2c" p-id="17158"></path></svg>